<svg width="65px" height="45px" viewBox="0 0 65 45" version="1.1" xmlns="http://www.w3.org/2000/svg">
<style>
#sun {display: inline}
#moon {display: none}
@media (prefers-color-scheme:dark){
path{fill:#fff}
#sun {display: none}
#moon {display: inline}
}
</style>
<path id="sun" d="M47.4453,31.9258 C48.9921733,30.8802267 50.2132033,29.56252 51.10839,27.97268 C52.00357,26.3828333 52.45116,24.6426 52.45116,22.75198 C52.45116,20.7610933 51.9713433,18.9528267 51.01171,17.32718 C50.0520767,15.7015267 48.7594333,14.4053033 47.13378,13.43851 C45.5081267,12.47171 43.69986,11.98831 41.70898,11.98831 C39.73242,11.98831 37.9384733,12.4681267 36.32714,13.42776 C34.7158133,14.3873933 33.46614,15.6334867 32.57812,17.16604 C33.0364533,17.6530193 33.46614,18.1614827 33.86718,18.69143 C34.2682213,19.221378 34.6334547,19.8014547 34.96288,20.43166 C37.2831933,20.6035347 39.3385333,21.1907747 41.1289,22.19338 C42.9192667,23.1959867 44.35872,24.5280167 45.44726,26.18947 C46.5358,27.85093 47.2018167,29.76304 47.44531,31.9258 L47.4453,31.9258 Z M54.87889,38.69338 C55.251286,39.065776 55.7060393,39.2483933 56.24315,39.241232 C56.7802593,39.2340705 57.2350127,39.0442919 57.60741,38.671896 C57.9941287,38.2995 58.1839073,37.8447467 58.176746,37.307636 C58.1695845,36.7705267 57.9798059,36.3157733 57.60741,35.943376 L54.42772,32.763686 C54.0696473,32.4056133 53.618474,32.222996 53.0742,32.215834 C52.5299293,32.2086725 52.071596,32.3912899 51.6992,32.763686 C51.326804,33.1504047 51.140606,33.615898 51.140606,34.160166 C51.140606,34.7044367 51.326804,35.16277 51.6992,35.535166 L54.87889,38.69338 Z M28.92579,12.74028 C29.3125087,13.1269987 29.778002,13.320358 30.32227,13.320358 C30.8665407,13.320358 31.324874,13.13416 31.69727,12.761764 C32.0553427,12.3750453 32.23796,11.916712 32.245122,11.386764 C32.2522835,10.856816 32.0625048,10.3984827 31.675786,10.011764 L28.539066,6.853564 C28.16667,6.46684533 27.7083367,6.27706667 27.164066,6.284228 C26.6197953,6.29138947 26.161462,6.48116813 25.789066,6.853564 C25.41667,7.21163667 25.230472,7.66639 25.230472,8.217824 C25.230472,8.769256 25.41667,9.23116933 25.789066,9.603564 L28.92579,12.74028 Z M57.77929,24.70708 L62.22656,24.70708 C62.756508,24.70708 63.2148413,24.5137207 63.60156,24.127002 C63.9882787,23.7402833 64.181638,23.28195 64.181638,22.752002 C64.181638,22.222054 63.9882787,21.7637207 63.60156,21.377002 C63.2148413,20.9902833 62.756508,20.796924 62.22656,20.796924 L57.77929,20.796924 C57.2636647,20.796924 56.8124913,20.9902833 56.42577,21.377002 C56.0390513,21.7637207 55.845692,22.222054 55.845692,22.752002 C55.845692,23.28195 56.0390513,23.7402833 56.42577,24.127002 C56.8124887,24.5137207 57.263662,24.70708 57.77929,24.70708 L57.77929,24.70708 Z M41.68749,8.59378 C42.2317607,8.59378 42.693674,8.40042067 43.07323,8.013702 C43.4527873,7.62698333 43.642566,7.16149 43.642566,6.617222 L43.642566,2.191442 C43.642566,1.661494 43.4527873,1.20316067 43.07323,0.816442 C42.6936727,0.429723333 42.2317593,0.236364 41.68749,0.236364 C41.157542,0.236364 40.7027887,0.429723333 40.32323,0.816442 C39.9436727,1.20316067 39.753894,1.661494 39.753894,2.191442 L39.753894,6.617222 C39.753894,7.16149267 39.9436727,7.626986 40.32323,8.013702 C40.7027873,8.40042067 41.1575407,8.59378 41.68749,8.59378 Z M51.69919,12.76175 C52.071586,13.134146 52.5334993,13.320344 53.08493,13.320344 C53.636362,13.320344 54.0982753,13.1269847 54.47067,12.740266 L57.60739,9.603546 C57.9941087,9.23115 58.187468,8.76923667 58.187468,8.217806 C58.187468,7.666374 58.00127,7.21162067 57.628874,6.853546 C57.2421553,6.48115 56.783822,6.29137133 56.253874,6.28421 C55.723926,6.27704853 55.2655927,6.4668272 54.878874,6.853546 L51.699184,10.011746 C51.326788,10.384142 51.1441707,10.8424753 51.151332,11.386746 C51.1584935,11.9310167 51.3411108,12.38935 51.699184,12.761746 L51.69919,12.76175 Z"></path>
<path id="moon" d="M47.7246,32.8192861 C49.38606,32.4754991 50.8756433,31.9169058 52.19335,31.1434691 C53.5110567,30.3700291 54.6282433,29.4784291 55.54491,28.4686691 C56.4615767,27.4589024 57.15982,26.4240724 57.63964,25.3641791 C58.119458,24.3042858 58.359367,23.3231658 58.359367,22.4208191 C58.359367,21.9768084 58.2698487,21.6151551 58.090812,21.3358591 C57.9117753,21.0565624 57.6432207,20.9169141 57.285148,20.9169141 C56.912752,20.9169141 56.475902,21.0314974 55.974598,21.2606641 C55.473296,21.4898308 54.8645727,21.7154168 54.148428,21.9374221 C53.4322813,22.1594274 52.5657447,22.2775914 51.548818,22.2919141 C49.8300713,22.2919141 48.336908,21.9624871 47.069328,21.3036331 C45.801748,20.6447791 44.827788,19.7209524 44.147448,18.5321531 C43.467108,17.3433531 43.126938,15.9611931 43.126938,14.3856731 C43.126938,13.4117131 43.245102,12.5308531 43.48143,11.7430931 C43.717758,10.9553331 43.957667,10.2606731 44.201157,9.6591131 C44.4446463,9.05755043 44.566391,8.56341043 44.566391,8.1766931 C44.566391,7.81862043 44.4518077,7.53574277 44.222641,7.3280601 C43.9934743,7.1203781 43.6640473,7.02369843 43.23436,7.0380211 C42.2604,7.08098983 41.23273,7.36744817 40.15135,7.8973961 C39.06997,8.4273441 38.03514,9.1613941 37.04686,10.0995461 C36.05858,11.0376994 35.1992067,12.1298228 34.46874,13.3759161 C33.7382733,14.6220094 33.2154867,15.9755261 32.90038,17.4364661 C33.272776,17.7658934 33.6272693,18.1597734 33.96386,18.6181061 C34.3004487,19.0764394 34.611972,19.5992261 34.89843,20.1864661 C36.66015,20.3153721 38.3037033,20.7235754 39.82909,21.4110761 C41.3544833,22.0985761 42.6972567,23.0116628 43.85741,24.1503361 C45.0175633,25.2890094 45.93423,26.5959761 46.60741,28.0712361 C47.28059,29.5464961 47.6529867,31.1291794 47.7246,32.8192861 L47.7246,32.8192861 Z"></path>
<path id="cloud" d="M9.89059,44.472655 L33.80269,44.472655 C35.85087,44.472655 37.6949467,43.9999933 39.33492,43.05468 C40.9748933,42.1093667 42.2711167,40.8274667 43.22359,39.20898 C44.1760633,37.5904933 44.6523,35.7714833 44.6523,33.75195 C44.6523,31.70377 44.15458,29.8740167 43.15914,28.26269 C42.1637,26.6513633 40.8066033,25.3766233 39.08785,24.43847 C37.3691033,23.5003167 35.4211867,23.02408 33.2441,23.00976 C32.4276933,21.4772067 31.4071867,20.1344333 30.18258,18.98144 C28.9579733,17.8284467 27.5543267,16.9368467 25.97164,16.30664 C24.38896,15.676432 22.66663,15.361328 20.80465,15.361328 C18.9999633,15.361328 17.3026967,15.6835937 15.71285,16.328125 C14.1230033,16.9726563 12.6978733,17.8678397 11.43746,19.013675 C10.1770467,20.1595083 9.15654,21.5022817 8.37594,23.041995 C7.59534,24.5817083 7.12626333,26.2467483 6.96871,28.037115 C5.09241,28.5813857 3.60282667,29.587569 2.49996,31.055665 C1.39709333,32.523765 0.84566,34.2317717 0.84566,36.179685 C0.84566,37.8124983 1.22521667,39.2519517 1.98433,40.498045 C2.74344333,41.7441383 3.80334,42.7180983 5.16402,43.419925 C6.5247,44.121745 8.10022,44.472655 9.89058,44.472655 L9.89059,44.472655 Z"></path>
</svg>